<?xml version="1.0" encoding="UTF-8"?>
<svg width="391px" height="403px" viewBox="0 0 391 403" version="1.1" xmlns="http://www.w3.org/2000/svg" xmlns:xlink="http://www.w3.org/1999/xlink">
    <title>Group 5</title>
    <defs>
        <circle id="path-1" cx="53" cy="53" r="53"></circle>
    </defs>
    <g id="Page-1" stroke="none" stroke-width="1" fill="none" fill-rule="evenodd">
        <g id="home" transform="translate(-889.000000, -760.000000)">
            <g id="Group-5" transform="translate(889.821111, 760.680560)">
                <g id="black-flamingo" fill="#FFFFFF" fill-rule="nonzero">
                    <path d="M19.0224058,24.4964794 C25.2491645,24.4964794 27.9862013,29.7652752 27.9862013,36.5394413 C27.9862013,42.9030518 24.4964794,49.1298106 19.2961094,49.1298106 C15.3274061,49.1298106 13.2062026,47.2138848 13.2062026,43.0399037 L13.2062026,26.2755533 C14.8484246,26.0702755 16.7643504,24.4964794 19.0224058,24.4964794 Z M4.99509216,41.6713853 C4.99509216,47.2823107 4.4476848,49.8140698 3.48972192,52.4826806 L4.99509216,53.3037917 L8.48481408,50.498329 C11.084999,51.7984214 14.7799987,52.4142547 18.6118502,52.4142547 C28.6020346,52.4142547 36.9499968,45.9822182 36.9499968,34.9656451 C36.9499968,26.4124051 31.1337936,19.4329613 23.6069424,19.4329613 C17.8591651,19.4329613 15.8063875,22.8542573 13.2062026,23.4700906 L13.2062026,2.27373675e-13 C13.2062026,2.27373675e-13 6.56888832,2.80546272 -1.13686838e-13,3.421296 L0.54740736,5.54249952 C3.62657376,5.54249952 4.99509216,6.56888832 4.99509216,9.2374992 L4.99509216,41.6713853 Z" id="Shape"></path>
                    <path d="M46.4773731,2.27373675e-13 C46.4773731,2.27373675e-13 39.9084848,2.80546272 33.2711705,3.421296 L33.8870038,5.54249952 C36.8977443,5.54249952 38.3346886,6.56888832 38.3346886,9.2374992 L38.3346886,44.6136998 C38.3346886,47.008607 36.8977443,48.5139773 34.7081148,48.8561069 L33.2711705,49.0613846 L33.2711705,51.31944 C33.2711705,51.31944 37.5820035,51.1141622 42.234966,51.1141622 C46.6142249,51.1141622 52.0593572,51.31944 52.0593572,51.31944 L50.9250579,49.0613846 L48.8038544,48.719255 C47.2300582,48.4455514 46.4773731,47.7612922 46.4773731,45.1611072 L46.4773731,2.27373675e-13 Z" id="Path"></path>
                    <path d="M65.9949337,29.5599974 C65.9949337,31.7496269 65.7896559,35.102497 65.7896559,35.102497 C54.4309532,35.102497 47.9989167,38.5922189 47.9989167,45.366385 C47.9989167,49.9509216 51.5570646,52.4142547 56.4153049,52.4142547 C61.8893785,52.4142547 64.010582,49.608792 66.7476188,48.8561069 C67.7055817,50.5667549 69.8267852,52.4142547 73.3165071,52.4142547 C78.1747474,52.4142547 80.8433583,48.9929587 80.8433583,48.9929587 L79.9538214,47.4875885 C79.9538214,47.4875885 78.9274326,47.9665699 77.4904882,47.9665699 C75.095581,47.9665699 73.6586367,46.0506442 73.6586367,43.0399037 C73.6586367,39.1396262 74.27447,33.8024045 74.27447,29.902127 C74.27447,22.8542573 69.963637,19.4329613 63.0526191,19.4329613 C56.346879,19.4329613 49.5727129,22.1015722 49.5727129,26.549257 C49.5727129,28.5336086 50.9412313,30.0389789 53.6782681,30.0389789 C55.1836383,30.0389789 56.5521567,29.5599974 57.3048418,28.8073123 C56.9627122,28.259905 56.7574345,27.4387939 56.7574345,26.7545347 C56.7574345,25.2491645 57.6469714,23.059535 60.7261378,23.059535 C64.5579894,23.059535 65.9949337,24.838609 65.9949337,29.5599974 Z M56.0731753,44.2031443 C56.0731753,39.6186077 60.8629897,37.7711078 65.72123,37.7711078 C65.72123,37.7711078 65.4475263,40.0975891 65.4475263,42.5609222 C65.4475263,44.3399962 65.5843782,45.5032368 65.9949337,46.7349034 C64.3527116,47.077033 62.4367858,48.1718477 60.5208601,48.1718477 C57.5785455,48.1718477 56.0731753,46.6664774 56.0731753,44.2031443 Z" id="Shape"></path>
                    <path d="M97.4186044,29.081016 C97.8975858,29.4231456 99.0608264,29.7652752 100.018789,29.7652752 C102.755826,29.7652752 104.603326,28.259905 104.603326,25.7965718 C104.603326,21.417313 99.2661042,19.4329613 93.6551788,19.4329613 C83.6649944,19.4329613 75.2486063,25.8649978 75.2486063,36.8815709 C75.2486063,46.8033293 81.6122168,52.4142547 90.1654568,52.4142547 C96.7343452,52.4142547 103.80798,49.2599172 107.16085,46.5228804 L106.271313,44.8122324 C104.423813,45.4964916 98.1712895,47.4191626 95.0236972,47.4191626 C88.8653644,47.4191626 84.2808277,44.1347184 84.2808277,35.3077747 C84.2808277,28.259905 87.3599941,22.6489795 92.4235122,22.6489795 C95.3658268,22.6489795 97.6238821,24.3596275 97.6238821,27.3019421 C97.6238821,27.8493494 97.5554562,28.4651827 97.4186044,29.081016 Z" id="Path"></path>
                    <path d="M113.925424,2.27373675e-13 C113.925424,2.27373675e-13 107.356536,2.80546272 100.719222,3.421296 L101.335055,5.54249952 C104.345796,5.54249952 105.78274,6.56888832 105.78274,9.2374992 L105.78274,44.6136998 C105.78274,47.008607 104.345796,48.5139773 102.156166,48.8561069 L100.719222,49.0613846 L100.719222,51.31944 C100.719222,51.31944 105.030055,51.1141622 109.683017,51.1141622 C114.062276,51.1141622 118.373109,51.31944 118.373109,51.31944 L118.373109,49.0613846 L116.251906,48.719255 C114.67811,48.4455514 113.925424,47.7612922 113.925424,45.1611072 L113.925424,35.2393488 C115.567647,35.2393488 116.320332,35.8551821 117.004591,36.9499968 L121.657553,44.5452739 C124.39459,49.1298106 127.542183,51.7984214 133.700515,51.7984214 C137.190237,51.7984214 140.132552,50.7036067 140.132552,50.7036067 L140.132552,49.0613846 C135.821719,49.0613846 133.221534,47.8297181 129.115979,41.6713853 L121.931257,30.9969418 L124.463016,27.7124976 C127.268479,24.0859238 130.826627,23.3332387 134.111071,22.9911091 L136.505978,22.7174054 L136.505978,20.527776 C136.505978,20.527776 133.768941,20.7330538 127.131627,20.7330538 C121.178572,20.7330538 117.68885,20.527776 117.68885,20.527776 L117.68885,22.7858314 L119.125794,22.9911091 C120.562739,23.1963869 121.452276,23.8806461 121.452276,25.1807386 C121.452276,25.7965718 121.110146,26.480831 120.699591,27.0966643 L116.594035,32.9128675 L113.925424,32.9128675 L113.925424,2.27373675e-13 Z" id="Path"></path>
                    <path d="M193.005882,2.27373675e-13 C193.005882,2.27373675e-13 190.337271,1.16324064 187.052827,1.98435168 C185.752735,1.0263888 182.947272,2.27373675e-13 179.389124,2.27373675e-13 C169.877921,2.27373675e-13 160.982552,6.70574016 160.982552,18.0644429 L160.982552,19.7750909 C159.477181,21.0067574 155.713756,22.238424 155.713756,22.238424 L156.055885,24.2912016 L160.982552,24.2912016 L160.982552,44.6136998 C160.982552,47.008607 159.203478,48.4455514 156.876997,48.8561069 L155.64533,49.0613846 L155.64533,51.31944 C155.64533,51.31944 160.229867,51.1141622 164.882829,51.1141622 C169.262088,51.1141622 175.694125,51.31944 175.694125,51.31944 L175.694125,49.0613846 L172.272829,48.719255 C170.151625,48.5139773 169.125236,47.7612922 169.125236,45.1611072 L169.125236,24.7017571 L182.331439,24.7017571 L182.331439,20.527776 L169.125236,20.527776 L169.125236,15.395832 C169.125236,7.93740672 172.40968,3.48972192 177.746902,3.48972192 C182.399865,3.48972192 184.794772,6.22675872 184.794772,10.1954621 L184.794772,44.6136998 C184.794772,47.008607 183.426253,48.5139773 181.168198,48.8561069 L179.79968,49.0613846 L179.79968,51.31944 C179.79968,51.31944 184.110513,51.1141622 188.763475,51.1141622 C193.142734,51.1141622 198.939526,51.31944 198.939526,51.31944 L198.939526,49.0613846 L195.332364,48.719255 C193.758567,48.4455514 193.005882,47.7612922 193.005882,45.1611072 L193.005882,2.27373675e-13 Z" id="Path"></path>
                    <path d="M212.523443,29.5599974 C212.523443,31.7496269 212.318165,35.102497 212.318165,35.102497 C200.959462,35.102497 194.527426,38.5922189 194.527426,45.366385 C194.527426,49.9509216 198.085574,52.4142547 202.943814,52.4142547 C208.417888,52.4142547 210.539091,49.608792 213.276128,48.8561069 C214.234091,50.5667549 216.355294,52.4142547 219.845016,52.4142547 C224.703257,52.4142547 227.81662,48.6734524 227.81662,48.6734524 L226.927083,47.1680821 C226.927083,47.1680821 225.455942,47.9665699 224.018997,47.9665699 C221.62409,47.9665699 220.187146,46.0506442 220.187146,43.0399037 C220.187146,39.1396262 220.802979,33.8024045 220.802979,29.902127 C220.802979,22.8542573 216.492146,19.4329613 209.581128,19.4329613 C202.875388,19.4329613 196.101222,22.1015722 196.101222,26.549257 C196.101222,28.5336086 197.46974,30.0389789 200.206777,30.0389789 C201.712148,30.0389789 203.080666,29.5599974 203.833351,28.8073123 C203.491221,28.259905 203.285944,27.4387939 203.285944,26.7545347 C203.285944,25.2491645 204.175481,23.059535 207.254647,23.059535 C211.086499,23.059535 212.523443,24.838609 212.523443,29.5599974 Z M202.601684,44.2031443 C202.601684,39.6186077 207.391499,37.7711078 212.249739,37.7711078 C212.249739,37.7711078 211.976036,40.0975891 211.976036,42.5609222 C211.976036,44.3399962 212.112887,45.5032368 212.523443,46.7349034 C210.881221,47.077033 208.965295,48.1718477 207.049369,48.1718477 C204.107055,48.1718477 202.601684,46.6664774 202.601684,44.2031443 Z" id="Shape"></path>
                    <path d="M254.826835,28.5336086 C254.826835,27.9177754 254.826835,27.370368 254.689983,26.7545347 C256.742761,26.2755533 258.384983,24.6333312 260.77989,24.6333312 C263.653779,24.6333312 265.706556,26.4124051 265.706556,29.7652752 L265.706556,44.6136998 C265.706556,46.9401811 264.611741,48.3771254 262.695816,48.8561069 L261.874705,49.0613846 L261.874705,51.31944 C261.874705,51.31944 265.022297,51.1141622 269.606834,51.1141622 C274.054518,51.1141622 278.365351,51.1141622 278.365351,51.1141622 L278.365351,49.0613846 L276.244148,48.719255 C274.670352,48.4455514 273.917667,47.7612922 273.917667,45.1611072 L273.917667,28.5336086 C273.917667,23.127961 270.770074,19.4329613 265.022297,19.4329613 C259.821927,19.4329613 256.948038,23.3332387 254.005724,24.2912016 C252.705631,21.2804611 249.968595,19.4329613 245.931465,19.4329613 C241.073225,19.4329613 238.062484,23.6069424 235.736003,24.4964794 L235.736003,19.5013872 C235.736003,19.5013872 229.167115,22.3068499 222.529801,22.9226832 L223.145634,24.9754608 C226.156374,24.9754608 227.593319,26.0702755 227.593319,28.7388864 L227.593319,44.6136998 C227.593319,47.008607 226.156374,48.5139773 223.966745,48.8561069 L222.529801,49.0613846 L222.529801,51.31944 C222.529801,51.31944 226.840634,51.1141622 231.493596,51.1141622 C235.872855,51.1141622 239.431003,51.31944 239.431003,51.31944 L239.431003,49.0613846 L237.857207,48.719255 C236.283411,48.3771254 235.736003,47.4191626 235.736003,45.1611072 L235.736003,27.1650902 C237.857207,26.6861088 239.431003,24.6333312 242.099614,24.6333312 C245.110354,24.6333312 246.615724,26.480831 246.615724,29.7652752 L246.615724,44.6136998 C246.615724,46.9401811 245.726187,48.3086995 243.604984,48.8561069 L242.783873,49.0613846 L242.783873,51.31944 C242.783873,51.31944 245.931465,51.1141622 250.584428,51.1141622 C254.963687,51.1141622 258.521835,51.31944 258.521835,51.31944 L258.521835,49.0613846 L256.948038,48.719255 C255.374242,48.3771254 254.826835,47.4191626 254.826835,45.1611072 L254.826835,28.5336086 Z" id="Path"></path>
                    <path d="M279.271062,6.5004624 C279.271062,9.2374992 281.392265,11.3587027 284.266154,11.3587027 C287.003191,11.3587027 289.19282,9.2374992 289.19282,6.5004624 C289.19282,3.83185152 287.003191,1.77907392 284.266154,1.77907392 C281.392265,1.77907392 279.271062,3.83185152 279.271062,6.5004624 Z M288.987542,19.5013872 C288.987542,19.5013872 282.350228,22.3068499 275.78134,22.9226832 L276.328747,24.9754608 C279.407914,24.9754608 280.776432,26.0702755 280.776432,28.7388864 L280.776432,44.6136998 C280.776432,47.008607 279.407914,48.5139773 277.149858,48.8561069 L275.78134,49.0613846 L275.78134,51.1141622 C275.78134,51.1141622 280.023747,51.1141622 284.676709,51.1141622 C289.124394,51.1141622 293.366801,51.1141622 293.366801,51.1141622 L293.366801,49.0613846 L291.314024,48.719255 C289.671802,48.4455514 288.987542,47.7612922 288.987542,45.1611072 L288.987542,19.5013872 Z" id="Shape"></path>
                    <path d="M324.722046,28.5336086 C324.722046,23.127961 321.64288,19.4329613 315.826676,19.4329613 C310.147325,19.4329613 307.273436,23.6069424 304.331122,24.4964794 L304.331122,19.5013872 C304.331122,19.5013872 297.762233,22.3068499 291.124919,22.9226832 L291.740753,24.9754608 C294.751493,24.9754608 296.188437,26.0702755 296.188437,28.7388864 L296.188437,44.6136998 C296.188437,47.008607 294.751493,48.5139773 292.561864,48.8561069 L291.124919,49.0613846 L291.124919,51.1141622 C291.124919,51.1141622 295.435752,51.1141622 300.088715,51.1141622 C304.467974,51.1141622 308.778807,51.31944 308.778807,51.31944 L308.778807,49.0613846 L306.657603,48.719255 C305.083807,48.4455514 304.331122,47.7612922 304.331122,45.1611072 L304.331122,27.1650902 C306.247048,26.9598125 308.847233,24.6333312 311.447417,24.6333312 C314.800288,24.6333312 316.510936,26.4124051 316.510936,29.7652752 L316.510936,44.6136998 C316.510936,46.9401811 315.279269,48.4455514 313.158065,48.8561069 L312.268529,49.0613846 L312.268529,51.31944 C312.268529,51.31944 315.826676,51.1141622 320.479639,51.1141622 C324.858898,51.1141622 329.169731,51.31944 329.169731,51.31944 L329.169731,49.0613846 L327.048527,48.719255 C325.474731,48.4455514 324.722046,47.7612922 324.722046,45.1611072 L324.722046,28.5336086 Z" id="Path"></path>
                    <path d="M339.039237,22.3068499 C343.076366,22.3068499 345.608125,27.1650902 345.608125,31.2706454 C345.608125,36.3341635 344.171181,39.5501818 340.134051,39.5501818 C336.028496,39.5501818 333.496737,34.6235155 333.496737,30.5179603 C333.496737,25.5228682 335.207385,22.3068499 339.039237,22.3068499 Z M339.586644,42.2872186 C347.524051,41.4661075 353.40868,37.2921264 353.40868,30.3126826 C353.40868,28.3283309 352.929698,26.4124051 351.766458,24.7017571 C353.613958,25.0438867 354.57192,25.7965718 356.624698,25.7965718 C358.60905,25.7965718 360.388124,24.4280534 360.388124,22.5805536 C360.388124,21.8962944 360.182846,21.0751834 359.77229,20.3909242 C357.856365,21.2804611 355.803587,21.8962944 352.861272,21.8962944 C351.355902,21.8962944 349.71368,21.6910166 348.071458,21.348887 C346.223958,20.1172205 343.35007,19.4329613 340.407755,19.4329613 C330.828126,19.4329613 325.696182,24.9754608 325.696182,31.5443491 C325.696182,36.4710154 329.664886,40.6449965 334.386274,41.8082371 C330.964978,42.6293482 327.338404,44.2031443 327.338404,48.5139773 C327.338404,52.8248102 332.812478,54.6038842 341.228866,54.6038842 C349.439976,54.6038842 351.492754,56.9987914 351.492754,59.8042541 C351.492754,63.0202723 347.181921,65.6204573 341.023588,65.6204573 C335.207385,65.6204573 331.786089,63.7045315 331.786089,60.0779578 C331.786089,58.8462912 331.991367,57.8199024 332.94933,56.6566618 C332.059793,55.6986989 330.828126,55.2197174 329.391182,55.2197174 C326.996275,55.2197174 324.532942,56.9987914 324.532942,60.1463837 C324.532942,66.4415683 331.580811,68.7680496 338.765533,68.7680496 C351.492754,68.7680496 357.582661,63.2255501 357.582661,57.272495 C357.582661,51.5247178 352.998124,47.898144 342.597384,47.898144 C336.370626,47.898144 334.249422,47.008607 334.249422,45.297959 C334.249422,42.9714778 337.602292,42.4924963 339.586644,42.2872186 Z" id="Shape"></path>
                    <path d="M372.010315,22.7174054 C377.484388,22.7174054 381.110962,29.902127 381.110962,36.5394413 C381.110962,42.9030518 378.784481,49.1298106 373.515685,49.1298106 C368.110037,49.1298106 364.483463,41.945089 364.483463,35.3077747 C364.483463,29.0125901 366.809945,22.7174054 372.010315,22.7174054 Z M371.736611,52.4142547 C383.300591,52.4142547 390.074758,44.4084221 390.074758,34.9656451 C390.074758,25.8649978 383.437443,19.4329613 373.857815,19.4329613 C362.225408,19.4329613 355.451242,27.4387939 355.451242,36.8815709 C355.451242,45.9822182 362.156982,52.4142547 371.736611,52.4142547 Z" id="Shape"></path>
                </g>
                <g id="Group-4" transform="translate(97.895125, 183.319440)">
                    <g id="a-digital-studio" transform="translate(124.982235, 142.318170) rotate(-26.000000) translate(-124.982235, -142.318170) translate(-3.572941, 120.789361)" fill="#FFC424" fill-rule="nonzero">
                        <path d="M9.83789063,17.4521484 C9.13411458,17.4521484 8.45279948,17.6318359 7.79394531,17.9912109 C7.13509115,18.3505859 6.55110677,18.8222656 6.04199219,19.40625 C5.5328776,19.9902344 5.12858073,20.6453451 4.82910156,21.371582 C4.5296224,22.097819 4.37988281,22.8277995 4.37988281,23.5615234 C4.37988281,23.8610026 4.39860026,24.1717122 4.43603516,24.4936523 C4.47347005,24.8155924 4.55957031,25.1113281 4.69433594,25.3808594 C4.82910156,25.6503906 5.02001953,25.875 5.26708984,26.0546875 C5.51416016,26.234375 5.84733073,26.3242188 6.26660156,26.3242188 C6.59602865,26.3242188 6.98160807,26.1782227 7.42333984,25.8862305 C7.86507161,25.5942383 8.32177734,25.2198893 8.79345703,24.7631836 C9.26513672,24.3064779 9.72558594,23.8048503 10.1748047,23.2583008 C10.6240234,22.7117513 11.0283203,22.1764323 11.3876953,21.6523438 C11.7470703,21.1282552 12.0390625,20.6565755 12.2636719,20.2373047 C12.4882813,19.8180339 12.6005859,19.5110677 12.6005859,19.3164063 C12.6005859,19.031901 12.5032552,18.7736003 12.3085938,18.5415039 C12.1139323,18.3094076 11.874349,18.1110026 11.5898438,17.9462891 C11.3053385,17.7815755 11.0021159,17.6580404 10.6801758,17.5756836 C10.3582357,17.4933268 10.077474,17.4521484 9.83789063,17.4521484 Z M25.4033203,23.2470703 C25.1337891,23.5016276 24.7744141,23.8535156 24.3251953,24.3027344 C23.8759766,24.7519531 23.3631185,25.2386068 22.7866211,25.7626953 C22.2101237,26.2867839 21.5961914,26.8146159 20.9448242,27.3461914 C20.293457,27.8777669 19.6271159,28.3606771 18.9458008,28.7949219 C18.2644857,29.2291667 17.594401,29.5847982 16.9355469,29.8618164 C16.2766927,30.1388346 15.6552734,30.2773438 15.0712891,30.2773438 C14.5472005,30.2773438 14.0979818,30.1650391 13.7236328,29.9404297 C13.3492839,29.7158203 13.0385742,29.4238281 12.7915039,29.0644531 C12.5444336,28.7050781 12.3610026,28.2970378 12.2412109,27.840332 C12.1214193,27.3836263 12.0615234,26.9156901 12.0615234,26.4365234 C12.0615234,26.1220703 12.0839844,25.8113607 12.1289063,25.5043945 C12.1738281,25.1974284 12.2486979,24.9091797 12.3535156,24.6396484 C11.8893229,25.2685547 11.3614909,25.9161784 10.7700195,26.5825195 C10.1785482,27.2488607 9.54215495,27.855306 8.86083984,28.4018555 C8.17952474,28.9484049 7.46826172,29.3976237 6.72705078,29.7495117 C5.98583984,30.1013997 5.23339844,30.2773438 4.46972656,30.2773438 C4.08040365,30.2773438 3.62744141,30.1987305 3.11083984,30.0415039 C2.59423828,29.8842773 2.10384115,29.6259766 1.63964844,29.2666016 C1.17545573,28.9072266 0.786132813,28.4430339 0.471679688,27.8740234 C0.157226563,27.305013 5.39180945e-13,26.608724 5.39180945e-13,25.7851563 C5.39180945e-13,25.171224 0.0935872396,24.4375 0.280761719,23.5839844 C0.467936198,22.7304688 0.752441406,21.8432617 1.13427734,20.9223633 C1.51611328,20.0014648 2.00276693,19.0917969 2.59423828,18.1933594 C3.18570964,17.2949219 3.88574219,16.4900716 4.69433594,15.7788086 C5.50292969,15.0675456 6.42382813,14.4910482 7.45703125,14.0493164 C8.49023438,13.6075846 9.64322917,13.3867188 10.9160156,13.3867188 C11.5748698,13.3867188 12.1513672,13.4690755 12.6455078,13.6337891 C13.1396484,13.7985026 13.5589193,13.9781901 13.9033203,14.1728516 C14.2926432,14.4124349 14.6370443,14.6744792 14.9365234,14.9589844 C15.1910807,14.8242188 15.453125,14.6969401 15.7226563,14.5771484 C15.9472656,14.4723307 16.1831055,14.3787435 16.4301758,14.2963867 C16.6772461,14.2140299 16.890625,14.1728516 17.0703125,14.1728516 C17.6393229,14.1728516 18.1035156,14.3300781 18.4628906,14.6445313 C18.8222656,14.9589844 19.0019531,15.3033854 19.0019531,15.6777344 C19.0019531,15.7825521 18.9944661,15.8649089 18.9794922,15.9248047 C18.9046224,16.2093099 18.7885742,16.5686849 18.6313477,17.0029297 C18.4741211,17.4371745 18.2981771,17.9200846 18.1035156,18.4516602 C17.9088542,18.9832357 17.7104492,19.5372721 17.5083008,20.1137695 C17.3061523,20.6902669 17.1227214,21.2555339 16.9580078,21.8095703 C16.7932943,22.3636068 16.6585286,22.8839518 16.5537109,23.3706055 C16.4488932,23.8572591 16.3964844,24.2727865 16.3964844,24.6171875 C16.3964844,25.0664063 16.4713542,25.4370117 16.6210938,25.7290039 C16.7708333,26.0209961 17.0253906,26.1669922 17.3847656,26.1669922 C17.609375,26.1669922 17.8751628,26.0958659 18.1821289,25.9536133 C18.4890951,25.8113607 18.8222656,25.6204427 19.1816406,25.3808594 C19.5410156,25.141276 19.9116211,24.8680013 20.293457,24.5610352 C20.675293,24.254069 21.0458984,23.9433594 21.4052734,23.6289063 C22.2438151,22.8802083 23.1347656,22.0266927 24.078125,21.0683594 C24.3177083,20.8736979 24.5498047,20.7763672 24.7744141,20.7763672 C25.0738932,20.7763672 25.324707,20.9223633 25.5268555,21.2143555 C25.7290039,21.5063477 25.8300781,21.8320313 25.8300781,22.1914063 C25.8300781,22.6106771 25.6878255,22.9625651 25.4033203,23.2470703 Z" id="Shape"></path>
                        <path d="M47.5273438,25.15625 C47.5123698,25.1861979 47.5048828,25.2236328 47.5048828,25.2685547 C47.5048828,25.3134766 47.4973958,25.3509115 47.4824219,25.3808594 C47.4824219,25.6503906 47.5498047,25.9311523 47.6845703,26.2231445 C47.8193359,26.5151367 48.0364583,26.6611328 48.3359375,26.6611328 C48.4557292,26.6611328 48.5455729,26.6461589 48.6054688,26.6162109 C49.4589844,26.3616536 50.3237305,25.9573568 51.199707,25.4033203 C52.0756836,24.8492839 52.9179688,24.2428385 53.7265625,23.5839844 C54.5351563,22.9251302 55.2801107,22.2513021 55.9614258,21.5625 C56.6427409,20.8736979 57.2080078,20.2597656 57.6572266,19.7207031 C57.866862,19.4661458 58.0989583,19.3388672 58.3535156,19.3388672 C58.578125,19.3388672 58.7765299,19.4436849 58.9487305,19.6533203 C59.120931,19.8629557 59.2070313,20.1474609 59.2070313,20.5068359 C59.2070313,20.7913411 59.128418,21.1282552 58.9711914,21.5175781 C58.8139648,21.906901 58.5556641,22.3261719 58.1962891,22.7753906 C57.3128255,23.7486979 56.406901,24.6845703 55.4785156,25.5830078 C54.5501302,26.4814453 53.6142578,27.2788086 52.6708984,27.9750977 C51.7275391,28.6713867 50.7879232,29.2291667 49.8520508,29.6484375 C48.9161784,30.0677083 47.9990234,30.2773438 47.1005859,30.2773438 C46.007487,30.2773438 45.1464844,29.9666341 44.5175781,29.3452148 C43.8886719,28.7237956 43.5742188,27.7916667 43.5742188,26.5488281 C43.5742188,26.4739583 43.5742188,26.3953451 43.5742188,26.3129883 C43.5742188,26.2306315 43.5817057,26.1520182 43.5966797,26.0771484 C43.2522786,26.7060547 42.8105469,27.2788086 42.2714844,27.7954102 C41.7324219,28.3120117 41.1409505,28.7537435 40.4970703,29.1206055 C39.8531901,29.4874674 39.186849,29.7719727 38.4980469,29.9741211 C37.8092448,30.1762695 37.1429036,30.2773438 36.4990234,30.2773438 C35.944987,30.2773438 35.4358724,30.202474 34.9716797,30.0527344 C34.507487,29.9029948 34.1069336,29.6634115 33.7700195,29.3339844 C33.4331055,29.0045573 33.1710612,28.5852865 32.9838867,28.0761719 C32.7967122,27.5670573 32.703125,26.953125 32.703125,26.234375 C32.703125,24.9765625 32.8977865,23.7823893 33.2871094,22.6518555 C33.6764323,21.5213216 34.1930339,20.4806315 34.8369141,19.5297852 C35.4807943,18.5789388 36.2182617,17.7254232 37.0493164,16.9692383 C37.8803711,16.2130534 38.7413737,15.5691732 39.6323242,15.0375977 C40.5232747,14.5060221 41.4104818,14.0979818 42.2939453,13.8134766 C43.1774089,13.5289714 43.9860026,13.3867188 44.7197266,13.3867188 C45.5732422,13.3867188 46.3069661,13.5289714 46.9208984,13.8134766 C47.2203776,13.9632161 47.4973958,14.1653646 47.7519531,14.4199219 C47.811849,14.2851563 47.8717448,14.1578776 47.9316406,14.0380859 C48.0813802,13.6787109 48.2161458,13.3680013 48.3359375,13.105957 C48.4557292,12.8439128 48.5380859,12.6529948 48.5830078,12.5332031 C48.6279297,12.3984375 48.7552083,12.0839844 48.9648438,11.5898438 C49.1744792,11.0957031 49.417806,10.5154622 49.6948242,9.84912109 C49.9718424,9.18277995 50.2713216,8.46777344 50.5932617,7.70410156 C50.9152018,6.94042969 51.2109375,6.22167969 51.4804688,5.54785156 C51.75,4.87402344 51.9820964,4.29378255 52.1767578,3.80712891 C52.3714193,3.32047526 52.4912109,3.00976563 52.5361328,2.875 C52.6409505,2.50065104 52.7832031,2.13753255 52.9628906,1.78564453 C53.1425781,1.43375651 53.355957,1.12679036 53.6030273,0.864746094 C53.8500977,0.602701823 54.1383464,0.393066406 54.4677734,0.235839844 C54.7972005,0.0786132813 55.1715495,3.2631882e-14 55.5908203,3.2631882e-14 C56.1598307,3.2631882e-14 56.6315104,0.123535156 57.0058594,0.370605469 C57.3802083,0.617675781 57.5673828,1.09309896 57.5673828,1.796875 C57.5673828,2.08138021 57.5299479,2.3733724 57.4550781,2.67285156 C57.3802083,2.97233073 57.2941081,3.26432292 57.1967773,3.54882813 C57.0994466,3.83333333 56.9946289,4.11409505 56.8823242,4.39111328 C56.7700195,4.66813151 56.6689453,4.92643229 56.5791016,5.16601563 C55.8304036,6.66341146 55.0442708,8.29182943 54.2207031,10.0512695 C53.3971354,11.8107096 52.5810547,13.5813802 51.7724609,15.3632813 C50.9638672,17.1451823 50.1927083,18.8821615 49.4589844,20.5742188 C48.7252604,22.266276 48.0813802,23.7936198 47.5273438,25.15625 Z M46.8535156,16.3740234 C45.9550781,16.4039714 45.0117188,16.5986328 44.0234375,16.9580078 C42.8854167,17.3473307 41.8447266,17.9275716 40.9013672,18.6987305 C39.9580078,19.4698893 39.1606445,20.4169922 38.5092773,21.5400391 C37.8579102,22.6630859 37.4873047,23.9508464 37.3974609,25.4033203 C37.3974609,26.0022786 37.6520182,26.3017578 38.1611328,26.3017578 C38.7900391,26.3017578 39.3889974,26.1707357 39.9580078,25.9086914 C40.5270182,25.6466471 41.0698242,25.2947591 41.5864258,24.8530273 C42.1030273,24.4112956 42.5859375,23.9059245 43.0351563,23.3369141 C43.484375,22.7679036 43.8999023,22.1764323 44.2817383,21.5625 C44.6635742,20.9485677 45.0079753,20.3383789 45.3149414,19.7319336 C45.6219076,19.1254883 45.8876953,18.5602214 46.1123047,18.0361328 C46.1871745,17.8714193 46.2919922,17.6393229 46.4267578,17.3398438 C46.5465495,17.0553385 46.6888021,16.7333984 46.8535156,16.3740234 Z" id="Shape"></path>
                        <path d="M60.9814453,10.2871094 C60.9814453,9.94270833 61.0450846,9.58707682 61.1723633,9.22021484 C61.2996419,8.85335286 61.4905599,8.52018229 61.7451172,8.22070313 C61.9996745,7.92122396 62.3178711,7.67415365 62.699707,7.47949219 C63.081543,7.28483073 63.5345052,7.1875 64.0585938,7.1875 C64.9270833,7.1875 65.5335286,7.35595703 65.8779297,7.69287109 C66.2223307,8.02978516 66.3945313,8.45279948 66.3945313,8.96191406 C66.3945313,9.24641927 66.3383789,9.5608724 66.2260742,9.90527344 C66.1137695,10.2496745 65.9453125,10.5678711 65.7207031,10.8598633 C65.4960938,11.1518555 65.2041016,11.3951823 64.8447266,11.5898438 C64.4853516,11.7845052 64.0585938,11.8818359 63.5644531,11.8818359 C62.6360677,11.8818359 61.9847005,11.7358398 61.6103516,11.4438477 C61.2360026,11.1518555 61.0263672,10.766276 60.9814453,10.2871094 Z M58.5107422,15.3408203 C58.7652995,14.9215495 59.0572917,14.6220703 59.3867188,14.4423828 C59.7161458,14.2626953 60.0530599,14.1728516 60.3974609,14.1728516 C60.9664714,14.1728516 61.4568685,14.3562826 61.8686523,14.7231445 C62.2804362,15.0900065 62.4863281,15.5579427 62.4863281,16.1269531 C62.4713542,16.2617188 62.4526367,16.3964844 62.4301758,16.53125 C62.4077148,16.6660156 62.3590495,16.8007813 62.2841797,16.9355469 C62.0745443,17.3248698 61.9023438,17.6542969 61.7675781,17.9238281 C61.6328125,18.1933594 61.5092773,18.4441732 61.3969727,18.6762695 C61.284668,18.9083659 61.1761068,19.1367188 61.0712891,19.3613281 C60.9664714,19.5859375 60.8391927,19.8554688 60.6894531,20.1699219 C60.5097656,20.5442708 60.3076172,20.9523112 60.0830078,21.394043 C59.8583984,21.8357747 59.6450195,22.288737 59.4428711,22.7529297 C59.2407227,23.2171224 59.0685221,23.6738281 58.9262695,24.1230469 C58.7840169,24.5722656 58.7128906,24.9840495 58.7128906,25.3583984 C58.7128906,25.7626953 58.8139648,26.0284831 59.0161133,26.1557617 C59.2182617,26.2830404 59.5065104,26.3466797 59.8808594,26.3466797 C60.3001302,26.3466797 60.7381185,26.2568359 61.1948242,26.0771484 C61.6515299,25.8974609 62.1119792,25.6653646 62.5761719,25.3808594 C63.0403646,25.0963542 63.4970703,24.7706706 63.9462891,24.4038086 C64.3955078,24.0369466 64.8185221,23.6663411 65.215332,23.2919922 C65.6121419,22.9176432 65.9790039,22.5582682 66.315918,22.2138672 C66.652832,21.8694661 66.9335938,21.5625 67.1582031,21.2929688 C67.4576823,21.0084635 67.7571615,20.8662109 68.0566406,20.8662109 C68.3261719,20.8662109 68.5470378,20.9860026 68.7192383,21.2255859 C68.8914388,21.4651693 68.9775391,21.7721354 68.9775391,22.1464844 C68.9775391,22.4908854 68.8914388,22.8577474 68.7192383,23.2470703 C68.5470378,23.6363932 68.266276,24.0032552 67.8769531,24.3476563 C67.1132813,25.1263021 66.3346354,25.8712565 65.5410156,26.5825195 C64.7473958,27.2937826 63.9350586,27.9226888 63.1040039,28.4692383 C62.2729492,29.0157878 61.438151,29.453776 60.5996094,29.7832031 C59.7610677,30.1126302 58.9150391,30.2773438 58.0615234,30.2773438 C56.8486328,30.2773438 55.894043,29.9666341 55.1977539,29.3452148 C54.5014648,28.7237956 54.1533203,27.7542318 54.1533203,26.4365234 C54.1533203,25.7477214 54.250651,25.0738932 54.4453125,24.4150391 C54.639974,23.7561849 54.8720703,23.1160482 55.1416016,22.4946289 C55.4111328,21.8732096 55.695638,21.2742513 55.9951172,20.6977539 C56.2945964,20.1212565 56.5491536,19.5709635 56.7587891,19.046875 C56.8336589,18.8522135 56.964681,18.5527344 57.1518555,18.1484375 C57.3390299,17.7441406 57.5374349,17.3323568 57.7470703,16.9130859 C57.9866536,16.4189453 58.2412109,15.8948568 58.5107422,15.3408203 Z" id="Shape"></path>
                        <path d="M76.7714844,13.3867188 C77.4303385,13.3867188 78.0068359,13.4690755 78.5009766,13.6337891 C78.9951172,13.7985026 79.414388,13.9781901 79.7587891,14.1728516 C80.148112,14.4124349 80.492513,14.6744792 80.7919922,14.9589844 C81.0016276,14.8242188 81.226237,14.6969401 81.4658203,14.5771484 C81.6754557,14.4723307 81.9075521,14.3787435 82.1621094,14.2963867 C82.4166667,14.2140299 82.671224,14.1728516 82.9257813,14.1728516 C83.5846354,14.1728516 84.09375,14.3076172 84.453125,14.5771484 C84.8125,14.8466797 84.9921875,15.1686198 84.9921875,15.5429688 C84.9921875,15.7376302 84.9397786,15.9322917 84.8349609,16.1269531 L79.5791016,26.0771484 L80.0058594,25.6953125 C81.7727865,24.6621094 83.2252604,23.8497721 84.3632813,23.2583008 C85.5013021,22.6668294 86.4072266,22.2288411 87.0810547,21.9443359 C87.7548828,21.6598307 88.237793,21.4838867 88.5297852,21.4165039 C88.8217773,21.3491211 89.0052083,21.3154297 89.0800781,21.3154297 C89.4244792,21.3154297 89.6902669,21.4464518 89.8774414,21.7084961 C90.0646159,21.9705404 90.1582031,22.296224 90.1582031,22.6855469 C90.1582031,23.1197917 90.034668,23.5615234 89.7875977,24.0107422 C89.5405273,24.4599609 89.1624349,24.781901 88.6533203,24.9765625 C87.9794922,25.3209635 87.1933594,25.691569 86.2949219,26.0883789 C85.3964844,26.4851888 84.460612,26.9231771 83.4873047,27.4023438 C82.5139974,27.8815104 81.5369466,28.4168294 80.5561523,29.0083008 C79.5753581,29.5997721 78.6582031,30.2548828 77.8046875,30.9736328 L73.4472656,38.8574219 C73.0878906,39.7109375 72.762207,40.4072266 72.4702148,40.9462891 C72.1782227,41.4853516 71.889974,41.9121094 71.6054688,42.2265625 C71.3209635,42.5410156 71.0289714,42.758138 70.7294922,42.8779297 C70.430013,42.9977214 70.085612,43.0576172 69.6962891,43.0576172 C69.1123047,43.0576172 68.6518555,42.8554688 68.3149414,42.4511719 C67.9780273,42.046875 67.8095703,41.5602214 67.8095703,40.9912109 C67.8095703,40.3922526 67.9518229,39.6959635 68.2363281,38.9023438 C68.5208333,38.108724 68.9213867,37.2514648 69.4379883,36.3305664 C69.9545898,35.409668 70.5797526,34.4438477 71.3134766,33.4331055 C72.0472005,32.4223633 72.8632813,31.3929036 73.7617188,30.3447266 L76.546875,26.7958984 C75.9778646,27.319987 75.4163411,27.7692057 74.8623047,28.1435547 C74.3082682,28.5179036 73.7766927,28.8211263 73.2675781,29.0532227 C72.7584635,29.285319 72.2830404,29.453776 71.8413086,29.5585938 C71.3995768,29.6634115 71.0139974,29.7158203 70.6845703,29.7158203 C70.085612,29.7158203 69.5315755,29.5773112 69.0224609,29.300293 C68.5133464,29.0232747 68.0753581,28.6376953 67.7084961,28.1435547 C67.3416341,27.6494141 67.0533854,27.0654297 66.84375,26.3916016 C66.6341146,25.7177734 66.5292969,24.9840495 66.5292969,24.1904297 C66.5292969,22.5432943 66.8474935,21.0533854 67.4838867,19.7207031 C68.1202799,18.3880208 68.9363607,17.2537435 69.9321289,16.3178711 C70.9278971,15.3819987 72.0284831,14.6595052 73.2338867,14.1503906 C74.4392904,13.641276 75.6184896,13.3867188 76.7714844,13.3867188 Z M75.9179688,17.3398438 C75.2141927,17.3398438 74.5328776,17.5157878 73.8740234,17.8676758 C73.2151693,18.2195638 72.6311849,18.6837565 72.1220703,19.2602539 C71.6129557,19.8367513 71.2086589,20.499349 70.9091797,21.2480469 C70.6097005,21.9967448 70.4599609,22.7679036 70.4599609,23.5615234 C70.4599609,23.8011068 70.4786784,24.0594076 70.5161133,24.3364258 C70.5535482,24.613444 70.6359049,24.8717448 70.7631836,25.1113281 C70.8904622,25.3509115 71.0776367,25.5493164 71.324707,25.706543 C71.5717773,25.8637695 71.9124349,25.9423828 72.3466797,25.9423828 C72.6611328,25.9423828 73.0317383,25.8038737 73.4584961,25.5268555 C73.8852539,25.2498372 74.3269857,24.8979492 74.7836914,24.4711914 C75.2403971,24.0444336 75.6858724,23.5727539 76.1201172,23.0561523 C76.554362,22.5395508 76.9474284,22.0341797 77.2993164,21.5400391 C77.6512044,21.0458984 77.9319661,20.6004232 78.1416016,20.2036133 C78.351237,19.8068034 78.4560547,19.5110677 78.4560547,19.3164063 C78.4560547,18.9869792 78.3662109,18.6987305 78.1865234,18.4516602 C78.0068359,18.2045898 77.7859701,17.9986979 77.5239258,17.8339844 C77.2618815,17.6692708 76.9848633,17.5457357 76.6928711,17.4633789 C76.4008789,17.3810221 76.1425781,17.3398438 75.9179688,17.3398438 Z" id="Shape"></path>
                        <path d="M92.9658203,10.2871094 C92.9658203,9.94270833 93.0294596,9.58707682 93.1567383,9.22021484 C93.2840169,8.85335286 93.4749349,8.52018229 93.7294922,8.22070313 C93.9840495,7.92122396 94.3022461,7.67415365 94.684082,7.47949219 C95.065918,7.28483073 95.5188802,7.1875 96.0429688,7.1875 C96.9114583,7.1875 97.5179036,7.35595703 97.8623047,7.69287109 C98.2067057,8.02978516 98.3789063,8.45279948 98.3789063,8.96191406 C98.3789063,9.24641927 98.3227539,9.5608724 98.2104492,9.90527344 C98.0981445,10.2496745 97.9296875,10.5678711 97.7050781,10.8598633 C97.4804688,11.1518555 97.1884766,11.3951823 96.8291016,11.5898438 C96.4697266,11.7845052 96.0429688,11.8818359 95.5488281,11.8818359 C94.6204427,11.8818359 93.9690755,11.7358398 93.5947266,11.4438477 C93.2203776,11.1518555 93.0107422,10.766276 92.9658203,10.2871094 Z M90.4951172,15.3408203 C90.7496745,14.9215495 91.0416667,14.6220703 91.3710938,14.4423828 C91.7005208,14.2626953 92.0374349,14.1728516 92.3818359,14.1728516 C92.9508464,14.1728516 93.4412435,14.3562826 93.8530273,14.7231445 C94.2648112,15.0900065 94.4707031,15.5579427 94.4707031,16.1269531 C94.4557292,16.2617188 94.4370117,16.3964844 94.4145508,16.53125 C94.3920898,16.6660156 94.3434245,16.8007813 94.2685547,16.9355469 C94.0589193,17.3248698 93.8867188,17.6542969 93.7519531,17.9238281 C93.6171875,18.1933594 93.4936523,18.4441732 93.3813477,18.6762695 C93.269043,18.9083659 93.1604818,19.1367188 93.0556641,19.3613281 C92.9508464,19.5859375 92.8235677,19.8554688 92.6738281,20.1699219 C92.4941406,20.5442708 92.2919922,20.9523112 92.0673828,21.394043 C91.8427734,21.8357747 91.6293945,22.288737 91.4272461,22.7529297 C91.2250977,23.2171224 91.0528971,23.6738281 90.9106445,24.1230469 C90.7683919,24.5722656 90.6972656,24.9840495 90.6972656,25.3583984 C90.6972656,25.7626953 90.7983398,26.0284831 91.0004883,26.1557617 C91.2026367,26.2830404 91.4908854,26.3466797 91.8652344,26.3466797 C92.2845052,26.3466797 92.7224935,26.2568359 93.1791992,26.0771484 C93.6359049,25.8974609 94.0963542,25.6653646 94.5605469,25.3808594 C95.0247396,25.0963542 95.4814453,24.7706706 95.9306641,24.4038086 C96.3798828,24.0369466 96.8028971,23.6663411 97.199707,23.2919922 C97.5965169,22.9176432 97.9633789,22.5582682 98.300293,22.2138672 C98.637207,21.8694661 98.9179688,21.5625 99.1425781,21.2929688 C99.4420573,21.0084635 99.7415365,20.8662109 100.041016,20.8662109 C100.310547,20.8662109 100.531413,20.9860026 100.703613,21.2255859 C100.875814,21.4651693 100.961914,21.7721354 100.961914,22.1464844 C100.961914,22.4908854 100.875814,22.8577474 100.703613,23.2470703 C100.531413,23.6363932 100.250651,24.0032552 99.8613281,24.3476563 C99.0976563,25.1263021 98.3190104,25.8712565 97.5253906,26.5825195 C96.7317708,27.2937826 95.9194336,27.9226888 95.0883789,28.4692383 C94.2573242,29.0157878 93.422526,29.453776 92.5839844,29.7832031 C91.7454427,30.1126302 90.8994141,30.2773438 90.0458984,30.2773438 C88.8330078,30.2773438 87.878418,29.9666341 87.1821289,29.3452148 C86.4858398,28.7237956 86.1376953,27.7542318 86.1376953,26.4365234 C86.1376953,25.7477214 86.235026,25.0738932 86.4296875,24.4150391 C86.624349,23.7561849 86.8564453,23.1160482 87.1259766,22.4946289 C87.3955078,21.8732096 87.680013,21.2742513 87.9794922,20.6977539 C88.2789714,20.1212565 88.5335286,19.5709635 88.7431641,19.046875 C88.8180339,18.8522135 88.949056,18.5527344 89.1362305,18.1484375 C89.3234049,17.7441406 89.5218099,17.3323568 89.7314453,16.9130859 C89.9710286,16.4189453 90.2255859,15.8948568 90.4951172,15.3408203 Z" id="Shape"></path>
                        <path d="M105.027344,17.2275391 C104.473307,18.3056641 103.949219,19.3575846 103.455078,20.3833008 C102.960938,21.4090169 102.496745,22.3561198 102.0625,23.2246094 C101.882813,23.5839844 101.706868,23.9995117 101.534668,24.4711914 C101.362467,24.9428711 101.276367,25.3583984 101.276367,25.7177734 C101.276367,25.9274089 101.325033,26.0921224 101.422363,26.2119141 C101.519694,26.3317057 101.680664,26.3916016 101.905273,26.3916016 C102.219727,26.3916016 102.616536,26.2980143 103.095703,26.1108398 C103.57487,25.9236654 104.091471,25.6765951 104.645508,25.3696289 C105.199544,25.0626628 105.783529,24.7107747 106.397461,24.3139648 C107.011393,23.9171549 107.614095,23.5053711 108.205566,23.0786133 C108.797038,22.6518555 109.362305,22.2250977 109.901367,21.7983398 C110.44043,21.371582 110.919596,20.9785156 111.338867,20.6191406 C111.578451,20.4544271 111.80306,20.3720703 112.012695,20.3720703 C112.267253,20.3720703 112.476888,20.484375 112.641602,20.7089844 C112.806315,20.9335937 112.888672,21.218099 112.888672,21.5625 C112.888672,21.906901 112.806315,22.2587891 112.641602,22.6181641 C112.476888,22.9775391 112.177409,23.3294271 111.743164,23.6738281 C110.769857,24.5572917 109.785319,25.3958333 108.789551,26.1894531 C107.793783,26.9830729 106.805501,27.6831055 105.824707,28.2895508 C104.843913,28.8959961 103.874349,29.3789062 102.916016,29.7382812 C101.957682,30.0976562 101.029297,30.2773437 100.130859,30.2773437 C99.531901,30.2773437 99.0302734,30.1987305 98.6259766,30.0415039 C98.2216797,29.8842773 97.8959961,29.6671549 97.6489258,29.3901367 C97.4018555,29.1131185 97.2259115,28.7911784 97.1210938,28.4243164 C97.016276,28.0574544 96.9638672,27.664388 96.9638672,27.2451172 C96.9638672,26.4964193 97.0911458,25.7177734 97.3457031,24.9091797 C97.6002604,24.1005859 97.8847656,23.374349 98.1992188,22.7304687 C98.6484375,21.8020833 99.0939128,20.8811849 99.5356445,19.9677734 C99.9773763,19.054362 100.407878,18.1783854 100.827148,17.3398437 L99.8613281,17.3398437 C99.0227865,17.3398437 98.4462891,17.2050781 98.1318359,16.9355469 C97.8173828,16.6660156 97.6601563,16.3590495 97.6601563,16.0146484 C97.6601563,15.8649089 97.7088216,15.6814779 97.8061523,15.4643555 C97.9034831,15.2472331 98.0457357,15.0450846 98.2329102,14.8579102 C98.4200846,14.6707357 98.6484375,14.5097656 98.9179688,14.375 C99.1875,14.2402344 99.4944661,14.1728516 99.8388672,14.1728516 L102.264648,14.1728516 L107.003906,4.76171875 C107.303385,4.19270833 107.673991,3.78466797 108.115723,3.53759766 C108.557454,3.29052734 109.017904,3.16699219 109.49707,3.16699219 C109.946289,3.16699219 110.358073,3.28678385 110.732422,3.52636719 C111.106771,3.76595052 111.293945,4.16276042 111.293945,4.71679687 C111.293945,5.00130208 111.230306,5.28955078 111.103027,5.58154297 C110.975749,5.87353516 110.807292,6.21419271 110.597656,6.60351562 C110.462891,6.85807292 110.298177,7.16129557 110.103516,7.51318359 C109.908854,7.86507161 109.702962,8.23942057 109.48584,8.63623047 C109.268717,9.03304036 109.044108,9.44856771 108.812012,9.8828125 C108.579915,10.3170573 108.351563,10.7363281 108.126953,11.140625 C107.617839,12.0989583 107.078776,13.1097005 106.509766,14.1728516 L113.832031,14.1728516 C114.191406,14.1728516 114.520833,14.191569 114.820313,14.2290039 C115.119792,14.2664388 115.378092,14.3413086 115.595215,14.4536133 C115.812337,14.565918 115.980794,14.719401 116.100586,14.9140625 C116.220378,15.108724 116.280273,15.3707682 116.280273,15.7001953 C116.280273,15.8649089 116.254069,16.0296224 116.20166,16.1943359 C116.149251,16.3590495 116.051921,16.5087891 115.909668,16.6435547 C115.767415,16.7783203 115.572754,16.890625 115.325684,16.9804687 C115.078613,17.0703125 114.760417,17.1302083 114.371094,17.1601562 L105.027344,17.2275391 Z" id="Path"></path>
                        <path d="M119.06543,17.4521484 C118.361654,17.4521484 117.680339,17.6318359 117.021484,17.9912109 C116.36263,18.3505859 115.778646,18.8222656 115.269531,19.40625 C114.760417,19.9902344 114.35612,20.6453451 114.056641,21.371582 C113.757161,22.097819 113.607422,22.8277995 113.607422,23.5615234 C113.607422,23.8610026 113.626139,24.1717122 113.663574,24.4936523 C113.701009,24.8155924 113.787109,25.1113281 113.921875,25.3808594 C114.056641,25.6503906 114.247559,25.875 114.494629,26.0546875 C114.741699,26.234375 115.07487,26.3242187 115.494141,26.3242187 C115.823568,26.3242187 116.209147,26.1782227 116.650879,25.8862305 C117.092611,25.5942383 117.549316,25.2198893 118.020996,24.7631836 C118.492676,24.3064779 118.953125,23.8048503 119.402344,23.2583008 C119.851563,22.7117513 120.255859,22.1764323 120.615234,21.6523437 C120.974609,21.1282552 121.266602,20.6565755 121.491211,20.2373047 C121.71582,19.8180339 121.828125,19.5110677 121.828125,19.3164062 C121.828125,19.031901 121.730794,18.7736003 121.536133,18.5415039 C121.341471,18.3094076 121.101888,18.1110026 120.817383,17.9462891 C120.532878,17.7815755 120.229655,17.6580404 119.907715,17.5756836 C119.585775,17.4933268 119.305013,17.4521484 119.06543,17.4521484 Z M134.630859,23.2470703 C134.361328,23.5016276 134.001953,23.8535156 133.552734,24.3027344 C133.103516,24.7519531 132.590658,25.2386068 132.01416,25.7626953 C131.437663,26.2867839 130.82373,26.8146159 130.172363,27.3461914 C129.520996,27.8777669 128.854655,28.3606771 128.17334,28.7949219 C127.492025,29.2291667 126.82194,29.5847982 126.163086,29.8618164 C125.504232,30.1388346 124.882813,30.2773437 124.298828,30.2773437 C123.77474,30.2773437 123.325521,30.1650391 122.951172,29.9404297 C122.576823,29.7158203 122.266113,29.4238281 122.019043,29.0644531 C121.771973,28.7050781 121.588542,28.2970378 121.46875,27.840332 C121.348958,27.3836263 121.289063,26.9156901 121.289063,26.4365234 C121.289063,26.1220703 121.311523,25.8113607 121.356445,25.5043945 C121.401367,25.1974284 121.476237,24.9091797 121.581055,24.6396484 C121.116862,25.2685547 120.58903,25.9161784 119.997559,26.5825195 C119.406087,27.2488607 118.769694,27.855306 118.088379,28.4018555 C117.407064,28.9484049 116.695801,29.3976237 115.95459,29.7495117 C115.213379,30.1013997 114.460938,30.2773437 113.697266,30.2773437 C113.307943,30.2773437 112.85498,30.1987305 112.338379,30.0415039 C111.821777,29.8842773 111.33138,29.6259766 110.867188,29.2666016 C110.402995,28.9072266 110.013672,28.4430339 109.699219,27.8740234 C109.384766,27.305013 109.227539,26.608724 109.227539,25.7851562 C109.227539,25.171224 109.321126,24.4375 109.508301,23.5839844 C109.695475,22.7304687 109.97998,21.8432617 110.361816,20.9223633 C110.743652,20.0014648 111.230306,19.0917969 111.821777,18.1933594 C112.413249,17.2949219 113.113281,16.4900716 113.921875,15.7788086 C114.730469,15.0675456 115.651367,14.4910482 116.68457,14.0493164 C117.717773,13.6075846 118.870768,13.3867187 120.143555,13.3867187 C120.802409,13.3867187 121.378906,13.4690755 121.873047,13.6337891 C122.367188,13.7985026 122.786458,13.9781901 123.130859,14.1728516 C123.520182,14.4124349 123.864583,14.6744792 124.164063,14.9589844 C124.41862,14.8242187 124.680664,14.6969401 124.950195,14.5771484 C125.174805,14.4723307 125.410645,14.3787435 125.657715,14.2963867 C125.904785,14.2140299 126.118164,14.1728516 126.297852,14.1728516 C126.866862,14.1728516 127.331055,14.3300781 127.69043,14.6445312 C128.049805,14.9589844 128.229492,15.3033854 128.229492,15.6777344 C128.229492,15.7825521 128.222005,15.8649089 128.207031,15.9248047 C128.132161,16.2093099 128.016113,16.5686849 127.858887,17.0029297 C127.70166,17.4371745 127.525716,17.9200846 127.331055,18.4516602 C127.136393,18.9832357 126.937988,19.5372721 126.73584,20.1137695 C126.533691,20.6902669 126.35026,21.2555339 126.185547,21.8095703 C126.020833,22.3636068 125.886068,22.8839518 125.78125,23.3706055 C125.676432,23.8572591 125.624023,24.2727865 125.624023,24.6171875 C125.624023,25.0664062 125.698893,25.4370117 125.848633,25.7290039 C125.998372,26.0209961 126.25293,26.1669922 126.612305,26.1669922 C126.836914,26.1669922 127.102702,26.0958659 127.409668,25.9536133 C127.716634,25.8113607 128.049805,25.6204427 128.40918,25.3808594 C128.768555,25.141276 129.13916,24.8680013 129.520996,24.5610352 C129.902832,24.254069 130.273438,23.9433594 130.632813,23.6289062 C131.471354,22.8802083 132.362305,22.0266927 133.305664,21.0683594 C133.545247,20.8736979 133.777344,20.7763672 134.001953,20.7763672 C134.301432,20.7763672 134.552246,20.9223633 134.754395,21.2143555 C134.956543,21.5063477 135.057617,21.8320312 135.057617,22.1914062 C135.057617,22.6106771 134.915365,22.9625651 134.630859,23.2470703 Z" id="Shape"></path>
                        <path d="M136.068359,23.2246094 C135.903646,23.5690104 135.742676,23.9695638 135.585449,24.4262695 C135.428223,24.8829753 135.349609,25.2910156 135.349609,25.6503906 C135.349609,25.875 135.394531,26.0546875 135.484375,26.1894531 C135.574219,26.3242188 135.746419,26.3916016 136.000977,26.3916016 C136.31543,26.3916016 136.708496,26.2980143 137.180176,26.1108398 C137.651855,25.9236654 138.16097,25.6765951 138.70752,25.3696289 C139.254069,25.0626628 139.823079,24.7107747 140.414551,24.3139648 C141.006022,23.9171549 141.59375,23.5053711 142.177734,23.0786133 C142.761719,22.6518555 143.319499,22.2250977 143.851074,21.7983398 C144.38265,21.371582 144.858073,20.9785156 145.277344,20.6191406 C145.397135,20.5143229 145.539388,20.4394531 145.704102,20.3945313 C145.868815,20.3496094 146.011068,20.3271484 146.130859,20.3271484 C146.430339,20.3271484 146.677409,20.4319661 146.87207,20.6416016 C147.066732,20.851237 147.164063,21.1282552 147.164063,21.4726563 C147.164063,21.7871094 147.059245,22.1389974 146.849609,22.5283203 C146.639974,22.9176432 146.273112,23.2994792 145.749023,23.6738281 C144.79069,24.5572917 143.82487,25.3958333 142.851563,26.1894531 C141.878255,26.9830729 140.908691,27.6831055 139.942871,28.2895508 C138.977051,28.8959961 138.018717,29.3789063 137.067871,29.7382813 C136.117025,30.0976563 135.192383,30.2773438 134.293945,30.2773438 C133.680013,30.2773438 133.167155,30.194987 132.755371,30.0302734 C132.343587,29.8655599 132.01416,29.6409505 131.76709,29.3564453 C131.52002,29.0719401 131.344076,28.735026 131.239258,28.3457031 C131.13444,27.9563802 131.082031,27.5445964 131.082031,27.1103516 C131.082031,26.3766276 131.190592,25.6241862 131.407715,24.8530273 C131.624837,24.0818685 131.883138,23.374349 132.182617,22.7304688 C132.706706,21.5625 133.238281,20.4020182 133.777344,19.2490234 C134.316406,18.0960286 134.810547,17.0403646 135.259766,16.0820313 L142.06543,1.59472656 C142.334961,1.01074219 142.698079,0.598958333 143.154785,0.359375 C143.611491,0.119791667 144.07194,3.45329378e-13 144.536133,3.45329378e-13 C145.000326,3.45329378e-13 145.42334,0.127278646 145.805176,0.381835938 C146.187012,0.636393229 146.37793,1.04817708 146.37793,1.6171875 C146.37793,1.88671875 146.31429,2.17122396 146.187012,2.47070313 C146.059733,2.77018229 145.898763,3.0921224 145.704102,3.43652344 C145.329753,4.14029948 144.884277,5.00130208 144.367676,6.01953125 C143.851074,7.03776042 143.297038,8.14583333 142.705566,9.34375 C142.114095,10.5416667 141.50765,11.7882487 140.88623,13.0834961 C140.264811,14.3787435 139.658366,15.6402995 139.066895,16.8681641 C138.475423,18.0960286 137.921387,19.2602539 137.404785,20.3608398 C136.888184,21.4614258 136.442708,22.4160156 136.068359,23.2246094 Z" id="Path"></path>
                        <path d="M161.381836,17.0703125 C162.295247,17.5494792 163.111328,18.0960286 163.830078,18.7099609 C164.548828,19.3238932 165.159017,19.9715169 165.660645,20.652832 C166.162272,21.3341471 166.544108,22.0266927 166.806152,22.7304688 C167.068197,23.4342448 167.199219,24.1230469 167.199219,24.796875 C167.199219,25.6503906 166.955892,26.417806 166.469238,27.0991211 C165.982585,27.7804362 165.346191,28.3569336 164.560059,28.8286133 C163.773926,29.300293 162.875488,29.659668 161.864746,29.9067383 C160.854004,30.1538086 159.832031,30.2773438 158.798828,30.2773438 C158.020182,30.2773438 157.263997,30.1912435 156.530273,30.019043 C155.796549,29.8468424 155.126465,29.5810547 154.52002,29.2216797 C153.913574,28.8623047 153.393229,28.4018555 152.958984,27.840332 C152.52474,27.2788086 152.217773,26.608724 152.038086,25.8300781 C152.008138,25.7102865 151.993164,25.6129557 151.993164,25.5380859 C151.993164,25.1337891 152.135417,24.7856445 152.419922,24.4936523 C152.704427,24.2016602 153.01888,24.0556641 153.363281,24.0556641 C153.527995,24.0556641 153.711426,24.085612 153.913574,24.1455078 C154.115723,24.2054036 154.269206,24.3401693 154.374023,24.5498047 C154.568685,24.9091797 154.84196,25.2311198 155.193848,25.515625 C155.545736,25.8001302 155.938802,26.043457 156.373047,26.2456055 C156.807292,26.4477539 157.267741,26.6049805 157.754395,26.7172852 C158.241048,26.8295898 158.716471,26.8857422 159.180664,26.8857422 C159.659831,26.8857422 160.12028,26.8408203 160.562012,26.7509766 C161.003743,26.6611328 161.393066,26.5188802 161.72998,26.3242188 C162.066895,26.1295573 162.332682,25.882487 162.527344,25.5830078 C162.722005,25.2835286 162.819336,24.9166667 162.819336,24.4824219 C162.819336,23.71875 162.647135,23.014974 162.302734,22.3710938 C161.958333,21.7272135 161.512858,21.1319987 160.966309,20.5854492 C160.419759,20.0388997 159.79834,19.5297852 159.102051,19.0581055 C158.405762,18.5864258 157.713216,18.1334635 157.024414,17.6992188 C156.949544,17.6542969 156.83724,17.5232747 156.6875,17.3061523 C156.53776,17.0890299 156.462891,16.8681641 156.462891,16.6435547 C156.462891,16.4638672 156.507813,16.3216146 156.597656,16.2167969 C156.83724,15.9023438 157.114258,15.5804036 157.428711,15.2509766 C157.743164,14.9215495 158.080078,14.6183268 158.439453,14.3413086 C158.798828,14.0642904 159.188151,13.839681 159.607422,13.6674805 C160.026693,13.4952799 160.460938,13.4091797 160.910156,13.4091797 C161.239583,13.4091797 161.546549,13.4541016 161.831055,13.5439453 C162.11556,13.6337891 162.355143,13.7498372 162.549805,13.8920898 C162.744466,14.0343424 162.897949,14.191569 163.010254,14.3637695 C163.122559,14.5359701 163.178711,14.6969401 163.178711,14.8466797 C163.178711,15.0563151 163.126302,15.2584635 163.021484,15.453125 C162.916667,15.6477865 162.778158,15.8349609 162.605957,16.0146484 C162.433757,16.1943359 162.239095,16.3740234 162.021973,16.5537109 C161.80485,16.7333984 161.591471,16.905599 161.381836,17.0703125 Z" id="Path"></path>
                        <path d="M175.352539,17.2275391 C174.798503,18.3056641 174.274414,19.3575846 173.780273,20.3833008 C173.286133,21.4090169 172.82194,22.3561198 172.387695,23.2246094 C172.208008,23.5839844 172.032064,23.9995117 171.859863,24.4711914 C171.687663,24.9428711 171.601563,25.3583984 171.601563,25.7177734 C171.601563,25.9274089 171.650228,26.0921224 171.747559,26.2119141 C171.844889,26.3317057 172.005859,26.3916016 172.230469,26.3916016 C172.544922,26.3916016 172.941732,26.2980143 173.420898,26.1108398 C173.900065,25.9236654 174.416667,25.6765951 174.970703,25.3696289 C175.52474,25.0626628 176.108724,24.7107747 176.722656,24.3139648 C177.336589,23.9171549 177.93929,23.5053711 178.530762,23.0786133 C179.122233,22.6518555 179.6875,22.2250977 180.226563,21.7983398 C180.765625,21.371582 181.244792,20.9785156 181.664063,20.6191406 C181.903646,20.4544271 182.128255,20.3720703 182.337891,20.3720703 C182.592448,20.3720703 182.802083,20.484375 182.966797,20.7089844 C183.13151,20.9335937 183.213867,21.218099 183.213867,21.5625 C183.213867,21.906901 183.13151,22.2587891 182.966797,22.6181641 C182.802083,22.9775391 182.502604,23.3294271 182.068359,23.6738281 C181.095052,24.5572917 180.110514,25.3958333 179.114746,26.1894531 C178.118978,26.9830729 177.130697,27.6831055 176.149902,28.2895508 C175.169108,28.8959961 174.199544,29.3789062 173.241211,29.7382812 C172.282878,30.0976562 171.354492,30.2773437 170.456055,30.2773437 C169.857096,30.2773437 169.355469,30.1987305 168.951172,30.0415039 C168.546875,29.8842773 168.221191,29.6671549 167.974121,29.3901367 C167.727051,29.1131185 167.551107,28.7911784 167.446289,28.4243164 C167.341471,28.0574544 167.289063,27.664388 167.289063,27.2451172 C167.289063,26.4964193 167.416341,25.7177734 167.670898,24.9091797 C167.925456,24.1005859 168.209961,23.374349 168.524414,22.7304687 C168.973633,21.8020833 169.419108,20.8811849 169.86084,19.9677734 C170.302572,19.054362 170.733073,18.1783854 171.152344,17.3398437 L170.186523,17.3398437 C169.347982,17.3398437 168.771484,17.2050781 168.457031,16.9355469 C168.142578,16.6660156 167.985352,16.3590495 167.985352,16.0146484 C167.985352,15.8649089 168.034017,15.6814779 168.131348,15.4643555 C168.228678,15.2472331 168.370931,15.0450846 168.558105,14.8579102 C168.74528,14.6707357 168.973633,14.5097656 169.243164,14.375 C169.512695,14.2402344 169.819661,14.1728516 170.164063,14.1728516 L172.589844,14.1728516 L177.329102,4.76171875 C177.628581,4.19270833 177.999186,3.78466797 178.440918,3.53759766 C178.88265,3.29052734 179.343099,3.16699219 179.822266,3.16699219 C180.271484,3.16699219 180.683268,3.28678385 181.057617,3.52636719 C181.431966,3.76595052 181.619141,4.16276042 181.619141,4.71679687 C181.619141,5.00130208 181.555501,5.28955078 181.428223,5.58154297 C181.300944,5.87353516 181.132487,6.21419271 180.922852,6.60351562 C180.788086,6.85807292 180.623372,7.16129557 180.428711,7.51318359 C180.234049,7.86507161 180.028158,8.23942057 179.811035,8.63623047 C179.593913,9.03304036 179.369303,9.44856771 179.137207,9.8828125 C178.905111,10.3170573 178.676758,10.7363281 178.452148,11.140625 C177.943034,12.0989583 177.403971,13.1097005 176.834961,14.1728516 L184.157227,14.1728516 C184.516602,14.1728516 184.846029,14.191569 185.145508,14.2290039 C185.444987,14.2664388 185.703288,14.3413086 185.92041,14.4536133 C186.137533,14.565918 186.30599,14.719401 186.425781,14.9140625 C186.545573,15.108724 186.605469,15.3707682 186.605469,15.7001953 C186.605469,15.8649089 186.579264,16.0296224 186.526855,16.1943359 C186.474447,16.3590495 186.377116,16.5087891 186.234863,16.6435547 C186.092611,16.7783203 185.897949,16.890625 185.650879,16.9804687 C185.403809,17.0703125 185.085612,17.1302083 184.696289,17.1601562 L175.352539,17.2275391 Z" id="Path"></path>
                        <path d="M204.439453,24.3476562 C203.780599,25.0963542 203.013184,25.8263346 202.137207,26.5375977 C201.26123,27.2488607 200.359049,27.8815104 199.430664,28.4355469 C198.502279,28.9895833 197.588867,29.4350586 196.69043,29.7719727 C195.791992,30.1088867 194.983398,30.2773437 194.264648,30.2773437 C193.545898,30.2773437 192.961914,30.0751953 192.512695,29.6708984 C192.063477,29.2666016 191.838867,28.5777995 191.838867,27.6044922 C191.838867,26.9156901 191.958659,26.1145833 192.198242,25.2011719 C191.808919,25.7851562 191.322266,26.3766276 190.738281,26.9755859 C190.154297,27.5745443 189.487956,28.1210937 188.739258,28.6152344 C187.99056,29.109375 187.152018,29.5099284 186.223633,29.8168945 C185.295247,30.1238607 184.284505,30.2773437 183.191406,30.2773437 C182.697266,30.2773437 182.221842,30.2249349 181.765137,30.1201172 C181.308431,30.0152995 180.907878,29.835612 180.563477,29.5810547 C180.219076,29.3264974 179.942057,28.9858398 179.732422,28.559082 C179.522786,28.1323242 179.417969,27.5970052 179.417969,26.953125 C179.417969,26.938151 179.447917,26.7097982 179.507813,26.2680664 C179.567708,25.8263346 179.758626,25.1300456 180.080566,24.1791992 C180.402507,23.2283529 180.900391,21.9967448 181.574219,20.484375 C182.248047,18.9720052 183.198893,17.1376953 184.426758,14.9814453 C184.741211,14.4124349 185.104329,14.0043945 185.516113,13.7573242 C185.927897,13.5102539 186.373372,13.3867187 186.852539,13.3867187 C187.062174,13.3867187 187.279297,13.4129232 187.503906,13.465332 C187.728516,13.5177409 187.938151,13.6000977 188.132813,13.7124023 C188.327474,13.824707 188.484701,13.9669596 188.604492,14.1391602 C188.724284,14.3113607 188.78418,14.5097656 188.78418,14.734375 C188.78418,14.8841146 188.761719,15.0263672 188.716797,15.1611328 C188.641927,15.4156901 188.480957,15.7488607 188.233887,16.1606445 C187.986816,16.5724284 187.698568,17.0441081 187.369141,17.5756836 C187.039714,18.1072591 186.691569,18.680013 186.324707,19.2939453 C185.957845,19.9078776 185.617188,20.5442708 185.302734,21.203125 C184.988281,21.8619792 184.71875,22.5320638 184.494141,23.2133789 C184.269531,23.894694 184.142253,24.5572917 184.112305,25.2011719 C184.112305,25.4707031 184.187174,25.7177734 184.336914,25.9423828 C184.486654,26.1669922 184.733724,26.2792969 185.078125,26.2792969 C186.051432,26.2792969 186.979818,26.0097656 187.863281,25.4707031 C188.746745,24.9316406 189.562826,24.261556 190.311523,23.4604492 C191.060221,22.6593424 191.737793,21.7983398 192.344238,20.8774414 C192.950684,19.956543 193.456055,19.1142578 193.860352,18.3505859 C194.144857,17.8414714 194.395671,17.2949219 194.612793,16.7109375 C194.829915,16.1269531 195.065755,15.5878906 195.320313,15.09375 C195.57487,14.5996094 195.866862,14.1878255 196.196289,13.8583984 C196.525716,13.5289714 196.9375,13.3642578 197.431641,13.3642578 C197.970703,13.3642578 198.397461,13.5364583 198.711914,13.8808594 C199.026367,14.2252604 199.183594,14.6370443 199.183594,15.1162109 C199.183594,15.3857422 199.08252,15.7563477 198.880371,16.2280273 C198.678223,16.699707 198.423665,17.2387695 198.116699,17.8452148 C197.809733,18.4516602 197.476563,19.0992839 197.117188,19.7880859 C196.757813,20.476888 196.424642,21.1769206 196.117676,21.8881836 C195.81071,22.5994466 195.556152,23.2957357 195.354004,23.9770508 C195.151855,24.6583659 195.050781,25.2910156 195.050781,25.875 C195.050781,26.4140625 195.380208,26.6835937 196.039063,26.6835937 C196.503255,26.6835937 197.079753,26.5488281 197.768555,26.2792969 C198.457357,26.0097656 199.17985,25.6316732 199.936035,25.1450195 C200.69222,24.6583659 201.448405,24.085612 202.20459,23.4267578 C202.960775,22.7679036 203.630859,22.0566406 204.214844,21.2929687 L204.439453,24.3476562 Z" id="Path"></path>
                        <path d="M215.041016,25.15625 C215.026042,25.1861979 215.018555,25.2236328 215.018555,25.2685547 C215.018555,25.3134766 215.011068,25.3509115 214.996094,25.3808594 C214.996094,25.6503906 215.063477,25.9311523 215.198242,26.2231445 C215.333008,26.5151367 215.55013,26.6611328 215.849609,26.6611328 C215.969401,26.6611328 216.059245,26.6461589 216.119141,26.6162109 C216.972656,26.3616536 217.837402,25.9573568 218.713379,25.4033203 C219.589355,24.8492839 220.431641,24.2428385 221.240234,23.5839844 C222.048828,22.9251302 222.793783,22.2513021 223.475098,21.5625 C224.156413,20.8736979 224.72168,20.2597656 225.170898,19.7207031 C225.380534,19.4661458 225.61263,19.3388672 225.867188,19.3388672 C226.091797,19.3388672 226.290202,19.4436849 226.462402,19.6533203 C226.634603,19.8629557 226.720703,20.1474609 226.720703,20.5068359 C226.720703,20.7913411 226.64209,21.1282552 226.484863,21.5175781 C226.327637,21.906901 226.069336,22.3261719 225.709961,22.7753906 C224.826497,23.7486979 223.920573,24.6845703 222.992188,25.5830078 C222.063802,26.4814453 221.12793,27.2788086 220.18457,27.9750977 C219.241211,28.6713867 218.301595,29.2291667 217.365723,29.6484375 C216.42985,30.0677083 215.512695,30.2773437 214.614258,30.2773437 C213.521159,30.2773437 212.660156,29.9666341 212.03125,29.3452148 C211.402344,28.7237956 211.087891,27.7916667 211.087891,26.5488281 C211.087891,26.4739583 211.087891,26.3953451 211.087891,26.3129883 C211.087891,26.2306315 211.095378,26.1520182 211.110352,26.0771484 C210.765951,26.7060547 210.324219,27.2788086 209.785156,27.7954102 C209.246094,28.3120117 208.654622,28.7537435 208.010742,29.1206055 C207.366862,29.4874674 206.700521,29.7719727 206.011719,29.9741211 C205.322917,30.1762695 204.656576,30.2773437 204.012695,30.2773437 C203.458659,30.2773437 202.949544,30.202474 202.485352,30.0527344 C202.021159,29.9029948 201.620605,29.6634115 201.283691,29.3339844 C200.946777,29.0045573 200.684733,28.5852865 200.497559,28.0761719 C200.310384,27.5670573 200.216797,26.953125 200.216797,26.234375 C200.216797,24.9765625 200.411458,23.7823893 200.800781,22.6518555 C201.190104,21.5213216 201.706706,20.4806315 202.350586,19.5297852 C202.994466,18.5789388 203.731934,17.7254232 204.562988,16.9692383 C205.394043,16.2130534 206.255046,15.5691732 207.145996,15.0375977 C208.036947,14.5060221 208.924154,14.0979818 209.807617,13.8134766 C210.691081,13.5289714 211.499674,13.3867187 212.233398,13.3867187 C213.086914,13.3867187 213.820638,13.5289714 214.43457,13.8134766 C214.734049,13.9632161 215.011068,14.1653646 215.265625,14.4199219 C215.325521,14.2851562 215.385417,14.1578776 215.445313,14.0380859 C215.595052,13.6787109 215.729818,13.3680013 215.849609,13.105957 C215.969401,12.8439128 216.051758,12.6529948 216.09668,12.5332031 C216.141602,12.3984375 216.26888,12.0839844 216.478516,11.5898437 C216.688151,11.0957031 216.931478,10.5154622 217.208496,9.84912109 C217.485514,9.18277995 217.784993,8.46777344 218.106934,7.70410156 C218.428874,6.94042969 218.724609,6.22167969 218.994141,5.54785156 C219.263672,4.87402344 219.495768,4.29378255 219.69043,3.80712891 C219.885091,3.32047526 220.004883,3.00976562 220.049805,2.875 C220.154622,2.50065104 220.296875,2.13753255 220.476563,1.78564453 C220.65625,1.43375651 220.869629,1.12679036 221.116699,0.864746094 C221.36377,0.602701823 221.652018,0.393066406 221.981445,0.235839844 C222.310872,0.0786132812 222.685221,-4.86933306e-14 223.104492,-4.86933306e-14 C223.673503,-4.86933306e-14 224.145182,0.123535156 224.519531,0.370605469 C224.89388,0.617675781 225.081055,1.09309896 225.081055,1.796875 C225.081055,2.08138021 225.04362,2.3733724 224.96875,2.67285156 C224.89388,2.97233073 224.80778,3.26432292 224.710449,3.54882812 C224.613118,3.83333333 224.508301,4.11409505 224.395996,4.39111328 C224.283691,4.66813151 224.182617,4.92643229 224.092773,5.16601562 C223.344076,6.66341146 222.557943,8.29182943 221.734375,10.0512695 C220.910807,11.8107096 220.094727,13.5813802 219.286133,15.3632812 C218.477539,17.1451823 217.70638,18.8821615 216.972656,20.5742187 C216.238932,22.266276 215.595052,23.7936198 215.041016,25.15625 Z M214.367188,16.3740234 C213.46875,16.4039714 212.525391,16.5986328 211.537109,16.9580078 C210.399089,17.3473307 209.358398,17.9275716 208.415039,18.6987305 C207.47168,19.4698893 206.674316,20.4169922 206.022949,21.5400391 C205.371582,22.6630859 205.000977,23.9508464 204.911133,25.4033203 C204.911133,26.0022786 205.16569,26.3017578 205.674805,26.3017578 C206.303711,26.3017578 206.902669,26.1707357 207.47168,25.9086914 C208.04069,25.6466471 208.583496,25.2947591 209.100098,24.8530273 C209.616699,24.4112956 210.099609,23.9059245 210.548828,23.3369141 C210.998047,22.7679036 211.413574,22.1764323 211.79541,21.5625 C212.177246,20.9485677 212.521647,20.3383789 212.828613,19.7319336 C213.135579,19.1254883 213.401367,18.5602214 213.625977,18.0361328 C213.700846,17.8714193 213.805664,17.6393229 213.94043,17.3398437 C214.060221,17.0553385 214.202474,16.7333984 214.367188,16.3740234 Z" id="Shape"></path>
                        <path d="M228.495117,10.2871094 C228.495117,9.94270833 228.558757,9.58707682 228.686035,9.22021484 C228.813314,8.85335286 229.004232,8.52018229 229.258789,8.22070313 C229.513346,7.92122396 229.831543,7.67415365 230.213379,7.47949219 C230.595215,7.28483073 231.048177,7.1875 231.572266,7.1875 C232.440755,7.1875 233.047201,7.35595703 233.391602,7.69287109 C233.736003,8.02978516 233.908203,8.45279948 233.908203,8.96191406 C233.908203,9.24641927 233.852051,9.5608724 233.739746,9.90527344 C233.627441,10.2496745 233.458984,10.5678711 233.234375,10.8598633 C233.009766,11.1518555 232.717773,11.3951823 232.358398,11.5898438 C231.999023,11.7845052 231.572266,11.8818359 231.078125,11.8818359 C230.14974,11.8818359 229.498372,11.7358398 229.124023,11.4438477 C228.749674,11.1518555 228.540039,10.766276 228.495117,10.2871094 Z M226.024414,15.3408203 C226.278971,14.9215495 226.570964,14.6220703 226.900391,14.4423828 C227.229818,14.2626953 227.566732,14.1728516 227.911133,14.1728516 C228.480143,14.1728516 228.97054,14.3562826 229.382324,14.7231445 C229.794108,15.0900065 230,15.5579427 230,16.1269531 C229.985026,16.2617188 229.966309,16.3964844 229.943848,16.53125 C229.921387,16.6660156 229.872721,16.8007813 229.797852,16.9355469 C229.588216,17.3248698 229.416016,17.6542969 229.28125,17.9238281 C229.146484,18.1933594 229.022949,18.4441732 228.910645,18.6762695 C228.79834,18.9083659 228.689779,19.1367188 228.584961,19.3613281 C228.480143,19.5859375 228.352865,19.8554688 228.203125,20.1699219 C228.023438,20.5442708 227.821289,20.9523112 227.59668,21.394043 C227.37207,21.8357747 227.158691,22.288737 226.956543,22.7529297 C226.754395,23.2171224 226.582194,23.6738281 226.439941,24.1230469 C226.297689,24.5722656 226.226563,24.9840495 226.226563,25.3583984 C226.226563,25.7626953 226.327637,26.0284831 226.529785,26.1557617 C226.731934,26.2830404 227.020182,26.3466797 227.394531,26.3466797 C227.813802,26.3466797 228.25179,26.2568359 228.708496,26.0771484 C229.165202,25.8974609 229.625651,25.6653646 230.089844,25.3808594 C230.554036,25.0963542 231.010742,24.7706706 231.459961,24.4038086 C231.90918,24.0369466 232.332194,23.6663411 232.729004,23.2919922 C233.125814,22.9176432 233.492676,22.5582682 233.82959,22.2138672 C234.166504,21.8694661 234.447266,21.5625 234.671875,21.2929688 C234.971354,21.0084635 235.270833,20.8662109 235.570313,20.8662109 C235.839844,20.8662109 236.06071,20.9860026 236.23291,21.2255859 C236.405111,21.4651693 236.491211,21.7721354 236.491211,22.1464844 C236.491211,22.4908854 236.405111,22.8577474 236.23291,23.2470703 C236.06071,23.6363932 235.779948,24.0032552 235.390625,24.3476563 C234.626953,25.1263021 233.848307,25.8712565 233.054688,26.5825195 C232.261068,27.2937826 231.44873,27.9226888 230.617676,28.4692383 C229.786621,29.0157878 228.951823,29.453776 228.113281,29.7832031 C227.27474,30.1126302 226.428711,30.2773438 225.575195,30.2773438 C224.362305,30.2773438 223.407715,29.9666341 222.711426,29.3452148 C222.015137,28.7237956 221.666992,27.7542318 221.666992,26.4365234 C221.666992,25.7477214 221.764323,25.0738932 221.958984,24.4150391 C222.153646,23.7561849 222.385742,23.1160482 222.655273,22.4946289 C222.924805,21.8732096 223.20931,21.2742513 223.508789,20.6977539 C223.808268,20.1212565 224.062826,19.5709635 224.272461,19.046875 C224.347331,18.8522135 224.478353,18.5527344 224.665527,18.1484375 C224.852702,17.7441406 225.051107,17.3323568 225.260742,16.9130859 C225.500326,16.4189453 225.754883,15.8948568 226.024414,15.3408203 Z" id="Shape"></path>
                        <path d="M242.46582,17.3398438 C241.762044,17.3398438 241.084473,17.5157878 240.433105,17.8676758 C239.781738,18.2195638 239.205241,18.6837565 238.703613,19.2602539 C238.201986,19.8367513 237.801432,20.4881185 237.501953,21.2143555 C237.202474,21.9405924 237.052734,22.6855469 237.052734,23.4492188 C237.052734,23.733724 237.075195,24.0444336 237.120117,24.3813477 C237.165039,24.7182617 237.258626,25.0327148 237.400879,25.324707 C237.543132,25.6166992 237.749023,25.860026 238.018555,26.0546875 C238.288086,26.249349 238.647461,26.3466797 239.09668,26.3466797 C239.785482,26.3466797 240.455566,26.1632487 241.106934,25.7963867 C241.758301,25.4295247 242.338542,24.9503581 242.847656,24.3588867 C243.356771,23.7674154 243.761068,23.0973307 244.060547,22.3486328 C244.360026,21.5999349 244.509766,20.84375 244.509766,20.0800781 C244.509766,19.780599 244.491048,19.4698893 244.453613,19.1479492 C244.416178,18.8260091 244.326335,18.5302734 244.184082,18.2607422 C244.041829,17.9912109 243.835938,17.7703451 243.566406,17.5981445 C243.296875,17.425944 242.930013,17.3398438 242.46582,17.3398438 Z M243.633789,13.3867188 C244.202799,13.3867188 244.812988,13.4615885 245.464355,13.6113281 C246.115723,13.7610677 246.718424,14.015625 247.272461,14.375 C247.826497,14.734375 248.286947,15.2097982 248.653809,15.8012695 C249.020671,16.3927409 249.204102,17.1227214 249.204102,17.9912109 C249.204102,18.4404297 249.144206,18.9532878 249.024414,19.5297852 C248.904622,20.1062826 248.724935,20.7089844 248.485352,21.3378906 C248.635091,21.5175781 248.807292,21.6448568 249.001953,21.7197266 C249.196615,21.7945964 249.40625,21.8320313 249.630859,21.8320313 C249.945313,21.8320313 250.293457,21.7421875 250.675293,21.5625 C251.057129,21.3828125 251.450195,21.1507161 251.854492,20.8662109 C252.258789,20.5817057 252.663086,20.2597656 253.067383,19.9003906 C253.47168,19.5410156 253.853516,19.1816406 254.212891,18.8222656 C254.572266,18.4628906 254.897949,18.1222331 255.189941,17.800293 C255.481934,17.4783529 255.72526,17.2050781 255.919922,16.9804688 C256.02474,16.875651 256.152018,16.8232422 256.301758,16.8232422 C256.511393,16.8232422 256.698568,16.9318034 256.863281,17.1489258 C257.027995,17.3660482 257.110352,17.6692708 257.110352,18.0585938 C257.110352,18.4479167 256.994303,18.8971354 256.762207,19.40625 C256.530111,19.9153646 256.099609,20.4469401 255.470703,21.0009766 C255.111328,21.3902995 254.699544,21.8395182 254.235352,22.3486328 C253.771159,22.8577474 253.277018,23.3369141 252.75293,23.7861328 C252.228841,24.2353516 251.682292,24.6171875 251.113281,24.9316406 C250.544271,25.2460938 249.97526,25.4033203 249.40625,25.4033203 C249.016927,25.4033203 248.638835,25.3434245 248.271973,25.2236328 C247.905111,25.1038411 247.534505,24.9091797 247.160156,24.6396484 C246.621094,25.4781901 246.007161,26.241862 245.318359,26.9306641 C244.629557,27.6194661 243.862142,28.2109375 243.016113,28.7050781 C242.170085,29.1992188 241.256673,29.5847982 240.275879,29.8618164 C239.295085,30.1388346 238.250651,30.2773438 237.142578,30.2773438 C236.723307,30.2773438 236.236654,30.194987 235.682617,30.0302734 C235.128581,29.8655599 234.600749,29.5922852 234.099121,29.2104492 C233.597493,28.8286133 233.174479,28.3307292 232.830078,27.7167969 C232.485677,27.1028646 232.313477,26.3541667 232.313477,25.4707031 C232.313477,24.8717448 232.410807,24.1529948 232.605469,23.3144531 C232.80013,22.4759115 233.095866,21.6111654 233.492676,20.7202148 C233.889486,19.8292643 234.391113,18.9458008 234.997559,18.0698242 C235.604004,17.1938477 236.326497,16.4077148 237.165039,15.7114258 C238.003581,15.0151367 238.961914,14.4536133 240.040039,14.0268555 C241.118164,13.6000977 242.316081,13.3867188 243.633789,13.3867188 Z" id="Shape"></path>
                    </g>
                    <g id="Group-Copy" transform="translate(34.283764, 0.000000)">
                        <mask id="mask-2" fill="white">
                            <use xlink:href="#path-1"></use>
                        </mask>
                        <use id="Oval" fill="#FFFFFF" xlink:href="#path-1"></use>
                        <rect id="Rectangle" fill="#000000" mask="url(#mask-2)" x="52" y="69" width="3" height="50"></rect>
                        <path d="M54.2137405,40.9417476 C63.2900763,40.0097087 70.019084,35.2718447 70.019084,27.3495146 C70.019084,25.0970874 69.471374,22.9223301 68.1412214,20.9805825 C70.2538168,21.368932 71.3492366,22.223301 73.6965649,22.223301 C75.9656489,22.223301 78,20.6699029 78,18.5728155 C78,17.7961165 77.7652672,16.8640777 77.2958015,16.0873786 C75.1049618,17.0970874 72.7576336,17.7961165 69.3931298,17.7961165 C67.6717557,17.7961165 65.7938931,17.5631068 63.9160305,17.1747573 C61.8034351,15.776699 58.5171756,15 55.1526718,15 C44.1984733,15 38.3301527,21.2912621 38.3301527,28.7475728 C38.3301527,34.3398058 42.8683206,39.0776699 48.2671756,40.3980583 C44.3549618,41.3300971 40.2080153,43.1165049 40.2080153,48.0097087 C40.2080153,52.9029126 46.4675573,54.9223301 56.0916031,54.9223301 C65.480916,54.9223301 67.8282443,57.6407767 67.8282443,60.8252427 C67.8282443,64.4757282 62.898855,67.4271845 55.8568702,67.4271845 C49.2061069,67.4271845 45.2938931,65.2524272 45.2938931,61.1359223 C45.2938931,59.7378641 45.528626,58.5728155 46.6240458,57.2524272 C45.6068702,56.1650485 44.1984733,55.6213592 42.5553435,55.6213592 C39.8167939,55.6213592 37,57.6407767 37,61.2135922 C37,68.3592233 45.0591603,71 53.2748092,71 C67.8282443,71 74.7919847,64.7087379 74.7919847,57.9514563 C74.7919847,51.4271845 69.5496183,47.3106796 57.6564885,47.3106796 C50.5362595,47.3106796 48.110687,46.3009709 48.110687,44.3592233 C48.110687,41.7184466 51.9446565,41.1747573 54.2137405,40.9417476 Z" id="Shape" fill="#000000" fill-rule="nonzero" mask="url(#mask-2)" transform="translate(57.500000, 43.000000) rotate(180.000000) translate(-57.500000, -43.000000) "></path>
                        <path d="M41.4240631,78.8755758 C55.3806706,77.586633 65.7278107,71.0345068 65.7278107,60.0784927 C65.7278107,56.9635475 64.8856016,53.9560142 62.8402367,51.2707166 C66.0887574,51.8077761 67.7731755,52.989307 71.382643,52.989307 C74.8717949,52.989307 78,50.841069 78,47.9409476 C78,46.8668285 77.6390533,45.5778857 76.9171598,44.5037667 C73.5483235,45.9001214 69.938856,46.8668285 64.765286,46.8668285 C62.1183432,46.8668285 59.2307692,46.5445928 56.3431953,46.0075333 C53.0946746,44.074119 48.0414201,43 42.8678501,43 C26.0236686,43 17,51.7003642 17,62.0119069 C17,69.745564 23.9783037,76.2976901 32.2800789,78.1236925 C36.3328985,78.8755758 37.9349112,79.1978115 41.4240631,78.8755758 Z" id="Shape-Copy" fill="#000000" fill-rule="nonzero" mask="url(#mask-2)" transform="translate(47.500000, 61.000000) rotate(180.000000) translate(-47.500000, -61.000000) "></path>
                    </g>
                </g>
            </g>
        </g>
    </g>
</svg>